<svg id="eGZL5Xtg2T91" xmlns="http://www.w3.org/2000/svg" xmlns:xlink="http://www.w3.org/1999/xlink" viewBox="0 0 164 110" shape-rendering="geometricPrecision" text-rendering="geometricPrecision"><path d="M82,6.912056l38.801778,34.277497-24.03052.181361-.362725-8.433352-4.262017-4.352698-5.531554-3.083161-3.536567-.997493h-4.352698l-5.984959,1.632261-5.168829,4.171336-1.178856,1.178856-.272045,9.70289h-24.846651L82,6.912056Z" transform="translate(.000002 0.000001)" fill="#fff" stroke-width="0.5" stroke-linecap="round"/><path d="M41.274359,42.321443v5.729037l24.846651-.190968v-5.538069h-24.846651Z" fill="#fff" stroke-width="0.5" stroke-linecap="round"/><path d="M41.274359,42.321443v5.729037l24.846651-.190968v-5.538069h-24.846651Z" transform="translate(0 7)" fill="#fff" stroke-width="0.5" stroke-linecap="round"/><path d="M41.274359,42.321443v5.729037l24.846651-.190968v-5.538069h-24.846651Z" transform="translate(0 14.864518)" fill="#fff" stroke-width="0.5" stroke-linecap="round"/><path d="M41.274359,42.321443v5.729037l24.846651-.190968v-5.538069h-24.846651Z" transform="translate(0 22)" fill="#fff" stroke-width="0.5" stroke-linecap="round"/><path d="M41.274359,42.321443v5.729037l24.846651-.190968v-5.538069h-24.846651Z" transform="translate(55 0)" fill="#fff" stroke-width="0.5" stroke-linecap="round"/><path d="M41.274359,42.321443v5.729037l24.846651-.190968v-5.538069h-24.846651Z" transform="translate(55 7)" fill="#fff" stroke-width="0.5" stroke-linecap="round"/><path d="M41.274359,42.321443v5.729037l24.846651-.190968v-5.538069h-24.846651Z" transform="translate(55 15)" fill="#fff" stroke-width="0.5" stroke-linecap="round"/><path d="M41.274359,42.321443v5.729037l24.846651-.190968v-5.538069h-24.846651Z" transform="translate(55 22)" fill="#fff" stroke-width="0.5" stroke-linecap="round"/><path d="M41.274359,72.05048h24.846651v2.54h-24.846651v-2.54v2.54" fill="#fff" stroke-width="0.5"/><path d="M41.274359,72.05048h24.846651v2.54h-24.846651v-2.54v2.54" transform="translate(55 0)" fill="#fff" stroke-width="0.5"/><path d="M66.12101,72.05048v0" fill="none" stroke="#3f5787" stroke-width="0.5"/><path d="M141.63515,55.05048h-19.669693v2.135481l19.669693.135481v-2.270962Z" transform="translate(0 0.000001)" fill="#fff" stroke-width="0.5" stroke-linecap="round" stroke-linejoin="round"/><path d="M141.63515,55.05048h-19.669693v2.135481l19.669693.135481v-2.270962Z" transform="translate(0 7.000001)" fill="#fff" stroke-width="0.5" stroke-linecap="round" stroke-linejoin="round"/><path d="M141.63515,55.05048h-19.669693v2.135481l19.669693.135481v-2.270962Z" transform="translate(0-6.999999)" fill="#fff" stroke-width="0.5" stroke-linecap="round" stroke-linejoin="round"/><path d="M141.63515,55.05048h-19.669693v2.135481l19.669693.135481v-2.270962Z" transform="translate(-102-6.864518)" fill="#fff" stroke-width="0.5" stroke-linecap="round" stroke-linejoin="round"/><path d="M141.63515,55.05048h-19.669693v2.135481l19.669693.135481v-2.270962Z" transform="translate(-102 0.000001)" fill="#fff" stroke-width="0.5" stroke-linecap="round" stroke-linejoin="round"/><path d="M141.63515,55.05048h-19.669693v2.135481l19.669693.135481v-2.270962Z" transform="translate(-102 8.000001)" fill="#fff" stroke-width="0.5" stroke-linecap="round" stroke-linejoin="round"/><path d="M141.63515,55.05048h-19.669693v2.135481l19.669693.135481v-2.270962Z" transform="translate(-102 16.000001)" fill="#fff" stroke-width="0.5" stroke-linecap="round" stroke-linejoin="round"/><path d="M141.63515,55.05048h-19.669693v2.135481l19.669693.135481v-2.270962Z" transform="translate(0 15.000001)" fill="#fff" stroke-width="0.5" stroke-linecap="round" stroke-linejoin="round"/><path d="M82,47.859512l.000002,30.433276h11.312871l-.258396-30.433276h-11.054477Z" transform="translate(1.000002 0)" fill="#fff" stroke-width="0.5"/><path d="M82,47.859512l.000002,30.433276h11.312871l-.258396-30.433276h-11.054477Z" transform="translate(-13.999998 0)" fill="#fff" stroke-width="0.5"/><path d="M79.312875,43.524556c0,0,0-11.745294,0-16.778991q-3.44387.675277-6.572135,2.708188t-5.168829,4.121155l11.740964,9.949648Z" fill="#fff" stroke-width="0.5"/><path d="M79.312875,43.524556c0,0,0-11.745294,0-16.778991q-3.44387.675277-6.572135,2.708188t-5.168829,4.121155l11.740964,9.949648Z" transform="matrix(-1 0 0 1 162.098832 0)" fill="#fff" stroke-width="0.5"/><path d="M68.000004,36.350168v9.67238l11.312871-.024181-11.312871-9.648199Z" transform="translate(.000002 0)" fill="#fff" stroke-width="0.5"/><path d="M68.000004,36.350168v9.67238l11.312871-.024181-11.312871-9.648199Z" transform="matrix(-1 0 0 1 162.31288 0)" fill="#fff" stroke-width="0.5"/></svg>
